<svg width="104" height="107" viewBox="0 0 104 107" fill="none" xmlns="http://www.w3.org/2000/svg">
<path d="M22.1244 6C22.1394 6.07872 22.1517 6.16236 22.161 6.2508C22.8245 10.8683 23.6963 20.282 22.1244 22.9439C20.1233 26.3326 17.8998 50.6243 29.9067 60.1666C35.2299 41.0244 53.3567 31.3937 67.0391 31.3053C62.2957 22.8702 51.1394 9.84061 41.9136 9.84061C39.3699 9.84061 36.7908 9.71822 34.3537 9.47345C28.9086 8.92657 24.1725 7.76875 22.1244 6Z" fill="#21BF48"/>
<path d="M9.22814 22.9439C-2.15618 30.8962 2.40941 53.5181 6.11524 63.8351C10.0434 70.9138 20.3012 84.9358 29.9067 84.3936C28.7943 79.6304 28.3213 75.1873 28.3811 71.0644C28.438 67.1419 28.9771 63.5092 29.9067 60.1666C17.8998 50.6243 20.1233 26.3326 22.1244 22.9439C23.6963 20.282 22.8245 10.8683 22.161 6.2508C22.4265 8.78494 20.2286 15.2597 9.22814 22.9439Z" fill="#21BF48"/>
<path fill-rule="evenodd" clip-rule="evenodd" d="M29.9067 84.3936C35.5396 96.6685 50.3629 115.118 83.0483 98.1746C99.0575 84.3936 108.263 66.9075 97.0564 51.1836C95.2035 47.2677 92.6094 38.7581 97.0564 36.0471C92.98 37.1014 83.3152 38.0804 77.2672 33.562C74.4872 32.032 70.9442 31.28 67.0391 31.3053C53.3567 31.3937 35.2299 41.0244 29.9067 60.1666C28.9771 63.5092 28.438 67.1419 28.3811 71.0644C28.3213 75.1873 28.7943 79.6304 29.9067 84.3936ZM62.8145 60.1666C74.9401 54.5933 77.3414 48.3615 77.2672 46.4394C77.2672 42.6439 73.2649 43.653 71.2638 44.632C72.8647 39.3907 67.6321 41.0926 64.8156 42.5987C58.5898 42.418 57.6263 46.4394 57.9228 48.4726C50.6297 42.5084 48.3617 47.7949 48.1394 51.1836C41.0242 55.4761 44.5818 57.5094 44.5818 61.8018C39.4233 64.6935 39.6951 63.8351 38.5783 66.772C34.7984 76.7124 39.9124 82.1344 44.5818 81.0048C51.9644 71.4259 55.9216 66.0942 62.5921 61.8018C57.7746 63.9104 59.2569 61.8018 62.8145 60.1666ZM69.9297 72.6459C75.6219 63.2477 81.0472 57.5847 83.0483 55.9279C87.6732 54.482 88.533 59.2414 88.3847 61.8018C92.6539 63.11 90.1635 67.0158 88.3847 68.8053C90.3414 72.7814 85.6424 74.2273 83.0483 74.4532C87.6732 80.5982 83.1966 83.6406 80.3801 84.3936C78.2456 91.8037 72.5238 91.3971 69.9297 90.2675C62.8145 100.886 50.1405 92.5267 52.1417 88.2342C62.9924 80.2819 68.5215 74.5285 69.9297 72.6459Z" fill="#21BF48"/>
<path d="M77.2672 46.4394C77.3414 48.3615 74.9401 54.5933 62.8145 60.1666C59.2569 61.8018 57.7746 63.9104 62.5921 61.8018C55.9216 66.0942 51.9644 71.4259 44.5818 81.0048C39.9124 82.1344 34.7984 76.7124 38.5783 66.772C39.6951 63.8351 39.4233 64.6935 44.5818 61.8018C44.5818 57.5094 41.0242 55.4761 48.1394 51.1836C48.3617 47.7949 50.6297 42.5084 57.9228 48.4726C57.6263 46.4394 58.5898 42.418 64.8156 42.5987C67.6321 41.0926 72.8647 39.3907 71.2638 44.632C73.2649 43.653 77.2672 42.6439 77.2672 46.4394Z" fill="#C4C4C4"/>
<path d="M83.0483 55.9279C81.0472 57.5847 75.6219 63.2477 69.9297 72.6459C68.5215 74.5285 62.9924 80.2819 52.1417 88.2342C50.1405 92.5267 62.8145 100.886 69.9297 90.2675C72.5238 91.3971 78.2456 91.8037 80.3801 84.3936C83.1966 83.6406 87.6732 80.5982 83.0483 74.4532C85.6424 74.2273 90.3414 72.7814 88.3847 68.8053C90.1635 67.0158 92.6539 63.11 88.3847 61.8018C88.533 59.2414 87.6732 54.482 83.0483 55.9279Z" fill="#C4C4C4"/>
<path d="M22.1244 6C22.1394 6.07872 22.1517 6.16236 22.161 6.2508M22.1244 6C22.1365 6.08192 22.1487 6.16554 22.161 6.2508M22.1244 6C24.1725 7.76875 28.9086 8.92657 34.3537 9.47345C36.7908 9.71822 39.3699 9.84061 41.9136 9.84061C51.1394 9.84061 62.2957 22.8702 67.0391 31.3053M29.9067 84.3936C20.3012 84.9358 10.0434 70.9138 6.11524 63.8351C2.40941 53.5181 -2.15618 30.8962 9.22814 22.9439C20.2286 15.2597 22.4265 8.78494 22.161 6.2508M29.9067 84.3936C35.5396 96.6685 50.3629 115.118 83.0483 98.1746C99.0575 84.3936 108.263 66.9075 97.0564 51.1836C95.2035 47.2677 92.6094 38.7581 97.0564 36.0471C92.98 37.1014 83.3152 38.0804 77.2672 33.562C74.4872 32.032 70.9442 31.28 67.0391 31.3053M29.9067 84.3936C28.7943 79.6304 28.3213 75.1873 28.3811 71.0644M29.9067 60.1666C17.8998 50.6243 20.1233 26.3326 22.1244 22.9439C23.6963 20.282 22.8245 10.8683 22.161 6.2508M29.9067 60.1666C35.2299 41.0244 53.3567 31.3937 67.0391 31.3053M29.9067 60.1666C28.9771 63.5092 28.438 67.1419 28.3811 71.0644M29.9067 22.9439C28.2761 26.5586 25.9933 34.9627 29.9067 39.6618M17.2327 55.9279C19.2545 60.7475 24.3146 70.5222 28.3811 71.0644M77.2672 46.4394C77.3414 48.3615 74.9401 54.5933 62.8145 60.1666C59.2569 61.8018 57.7746 63.9104 62.5921 61.8018C55.9216 66.0942 51.9644 71.4259 44.5818 81.0048C39.9124 82.1344 34.7984 76.7124 38.5783 66.772C39.6951 63.8351 39.4233 64.6935 44.5818 61.8018C44.5818 57.5094 41.0242 55.4761 48.1394 51.1836C48.3617 47.7949 50.6297 42.5084 57.9228 48.4726C57.6263 46.4394 58.5898 42.418 64.8156 42.5987C67.6321 41.0926 72.8647 39.3907 71.2638 44.632C73.2649 43.653 77.2672 42.6439 77.2672 46.4394ZM83.0483 55.9279C81.0472 57.5847 75.6219 63.2477 69.9297 72.6459C68.5215 74.5285 62.9924 80.2819 52.1417 88.2342C50.1405 92.5267 62.8145 100.886 69.9297 90.2675C72.5238 91.3971 78.2456 91.8037 80.3801 84.3936C83.1966 83.6406 87.6732 80.5982 83.0483 74.4532C85.6424 74.2273 90.3414 72.7814 88.3847 68.8053C90.1635 67.0158 92.6539 63.11 88.3847 61.8018C88.533 59.2414 87.6732 54.482 83.0483 55.9279Z" stroke="#767676" stroke-width="4"/>
</svg>
